<?xml version="1.0" encoding="UTF-8" standalone="no"?><!DOCTYPE svg PUBLIC "-//W3C//DTD SVG 1.1//EN" "http://www.w3.org/Graphics/SVG/1.1/DTD/svg11.dtd"><svg width="100%" height="100%" viewBox="0 0 16 16" version="1.1" xmlns="http://www.w3.org/2000/svg" xmlns:xlink="http://www.w3.org/1999/xlink" xml:space="preserve" xmlns:serif="http://www.serif.com/" style="fill-rule:evenodd;clip-rule:evenodd;stroke-linejoin:round;stroke-miterlimit:2;"><g><path d="M16,13.444c0,1.412 -1.144,2.556 -2.556,2.556l-10.888,0c-1.412,0 -2.556,-1.144 -2.556,-2.556l0,-10.889c0,-1.412 1.144,-2.555 2.556,-2.555l10.888,0c1.412,0 2.556,1.143 2.556,2.555l0,10.889Z" style="fill:#fcdf02;fill-rule:nonzero;"/><g><path d="M2.967,12.454l-0,-0l5.34,-5.301l2.609,-2.625l-0.089,-0.09c-0.03,-0.029 -0.045,-0.059 -0.045,-0.104c-0,-0.045 0.015,-0.075 0.045,-0.105l0.044,-0.045c-1.091,-1.047 -2.647,-1.675 -2.662,-1.675c-0.06,-0.03 -0.089,-0.089 -0.089,-0.149c-0,-0.06 0.044,-0.12 0.104,-0.135c0.613,-0.149 1.989,-0.075 3.365,1.256l0.075,-0.074c0.06,-0.06 0.149,-0.06 0.209,-0l0.075,0.074l0.12,-0.119c0.119,-0.12 0.269,-0.18 0.433,-0.18c0.165,0 0.315,0.06 0.434,0.18c0.12,0.119 0.18,0.269 0.18,0.433c-0,0.165 -0.06,0.315 -0.18,0.434l-0.119,0.12l0.074,0.075c0.03,0.03 0.045,0.059 0.045,0.104c0,0.045 -0.015,0.075 -0.045,0.105l-0.06,0.06c1.346,1.376 1.436,2.782 1.272,3.395c-0.015,0.059 -0.075,0.104 -0.135,0.104l-0.015,0c-0.06,0 -0.105,-0.03 -0.135,-0.089c0,-0.015 -0.628,-1.601 -1.704,-2.692l-0.06,0.06c-0.03,0.029 -0.075,0.044 -0.105,0.044c-0.03,0 -0.075,-0.015 -0.105,-0.044l-0.179,-0.165l-2.594,2.594l-0.69,0.676l-4.65,4.641l-0.002,-0.002c-0.21,0.21 -0.551,0.21 -0.761,-0c-0.21,-0.21 -0.21,-0.551 0,-0.761l0,0Zm8.802,-8.73l0.808,0.807l-0.629,0.628l-0.807,-0.807l0.628,-0.628Z" style="fill:#272727;"/><path d="M5.815,6.641l-0.725,0.715c-0.197,0.198 -0.52,0.198 -0.718,0l-1.809,-1.809c-1.583,-1.524 0.245,-4.199 2.26,-3.377c0.248,0.102 0.481,0.256 0.671,0.445l1.81,1.84c0.194,0.194 0.194,0.523 -0,0.718l-0.721,0.711l1.303,1.296l-0.766,0.76l-1.305,-1.299Zm-0.805,-3.734c-0.06,-0.059 -0.149,-0.059 -0.209,0c-0.06,0.06 -0.06,0.15 -0,0.21l1.615,1.63c0.03,0.03 0.075,0.045 0.105,0.045c0.03,-0 0.075,-0.015 0.104,-0.045c0.06,-0.06 0.06,-0.15 0,-0.21l-1.615,-1.63Z" style="fill:#272727;fill-rule:nonzero;"/><path d="M12.229,11.5c0.149,-0.066 0.311,-0.103 0.479,-0.103l0.03,-0l0.03,0.001c0.298,0.014 0.572,0.129 0.787,0.344l0.262,0.261c0.115,0.115 0.115,0.301 -0,0.416l-1.451,1.451c-0.055,0.055 -0.13,0.086 -0.208,0.086c-0.078,-0 -0.152,-0.031 -0.207,-0.086c-0,-0 -0.262,-0.262 -0.262,-0.262c-0.229,-0.229 -0.345,-0.526 -0.345,-0.847c-0,-0.18 0.037,-0.354 0.11,-0.511l-3.187,-3.169l0.309,-0.308l0.459,-0.45l3.194,3.177Zm0.479,0.484c-0.166,0 -0.318,0.074 -0.438,0.18l-0.166,0.166c-0.116,0.116 -0.173,0.268 -0.173,0.431c0,0.163 0.057,0.315 0.173,0.431l0.054,0.054l1.036,-1.035l-0.054,-0.054c-0.109,-0.109 -0.25,-0.166 -0.401,-0.172l-0.031,-0.001Z" style="fill:#272727;"/></g></g></svg>